<?xml version="1.0" encoding="utf-8"?>
<!-- Generator: Adobe Illustrator 21.0.0, SVG Export Plug-In . SVG Version: 6.00 Build 0)  -->
<svg version="1.1" id="Layer_1" xmlns="http://www.w3.org/2000/svg" xmlns:xlink="http://www.w3.org/1999/xlink" x="0px" y="0px"
	 viewBox="0 0 480.22 129.67" enable-background="new 0 0 480.22 129.67" xml:space="preserve">
<path fill="none" stroke="#000000" stroke-width="5" stroke-miterlimit="10" d="M14.683,18.883c23.197,0,24.671,38.23,24.671,78.106
	c0-39.876,18.805-72.201,42.003-72.201s42.003,32.325,42.003,72.201c0-39.876,18.805-72.201,42.003-72.201
	s42.003,32.325,42.003,72.201"/>
<g>
	<circle cx="168.011" cy="68.863" r="20.309"/>
	<circle fill="#FFFFFF" cx="176.174" cy="60.699" r="10.154"/>
</g>
<g>
	<path d="M227.478,109.808c5,0,8.183-4,10-9.455l1-3.272L220.75,52.807h7.728l9,24.455c1.364,3.818,2.909,8.364,4.273,12.455h0.363
		c1.272-4,2.546-8.546,3.728-12.455l7.909-24.455h7.273l-16.638,47.82c-3.091,8.728-7.636,15.364-16.546,15.364
		c-2,0-3.727-0.364-5.182-0.909l1.455-5.909C225.024,109.445,226.387,109.808,227.478,109.808z"/>
	<path d="M271.788,81.624c5.05,5.265,12.034,8.811,19.448,8.811c9.241,0,14.722-4.62,14.722-11.497c0-7.2-5.158-9.456-11.82-12.465
		l-10.101-4.405c-6.555-2.794-14.291-7.844-14.291-18.16c0-10.745,9.456-18.697,22.243-18.697c8.381,0,15.795,3.546,20.738,8.704
		l-4.729,5.803c-4.298-4.083-9.563-6.662-16.01-6.662c-7.952,0-13.217,3.976-13.217,10.315c0,6.77,6.232,9.348,11.712,11.712
		l10.101,4.298c8.167,3.546,14.506,8.381,14.506,18.804c0,11.175-9.24,20.093-24.069,20.093c-9.885,0-18.481-4.083-24.606-10.422
		L271.788,81.624z"/>
	<path d="M325.047,38.897c0-2.909,2.273-4.818,5.183-4.818s5.182,1.909,5.182,4.818c0,2.818-2.272,4.818-5.182,4.818
		S325.047,41.715,325.047,38.897z M326.411,52.807h7.454V96.99h-7.454V52.807z"/>
	<path d="M351.867,95.444V95.08c-2.182-1.364-3.909-3.728-3.909-7.182c0-3.727,2.545-6.636,4.818-8.182v-0.363
		c-2.909-2.364-5.728-6.637-5.728-11.91c0-9.637,7.637-15.728,16.637-15.728c2.455,0,4.637,0.455,6.273,1.091h15.363v5.728h-9.091
		c2.091,2,3.637,5.364,3.637,9.091c0,9.455-7.183,15.364-16.183,15.364c-2.182,0-4.637-0.545-6.637-1.545
		c-1.545,1.364-2.818,2.818-2.818,5.273c0,2.818,1.818,4.818,7.818,4.818h8.546c10.273,0,15.455,3.182,15.455,10.545
		c0,8.183-8.637,15.273-22.364,15.273c-10.818,0-18.273-4.272-18.273-11.909C345.411,101.717,347.867,98.171,351.867,95.444z
		 M364.776,112.172c8.455,0,14.001-4.364,14.001-9.001c0-4.091-3.183-5.454-8.91-5.454h-7.636c-1.728,0-3.818-0.182-5.728-0.728
		c-3.183,2.272-4.546,4.909-4.546,7.455C351.957,109.172,356.776,112.172,364.776,112.172z M373.049,67.443
		c0-6.455-4.183-10.273-9.364-10.273s-9.364,3.818-9.364,10.273s4.273,10.546,9.364,10.546S373.049,73.898,373.049,67.443z"/>
	<path d="M394.598,32.26h7.454v17.637l-0.272,9.091c4.182-4,8.637-7.273,14.728-7.273c9.273,0,13.455,6,13.455,17.273V96.99h-7.455
		V69.989c0-8.273-2.545-11.818-8.363-11.818c-4.546,0-7.637,2.364-12.092,6.818V96.99h-7.454V32.26z"/>
	<path d="M445.328,58.897h-6.546v-5.636l6.909-0.455l0.909-12.364h6.273v12.364h11.909v6.091h-11.909v24.546
		c0,5.455,1.728,8.546,6.818,8.546c1.545,0,3.545-0.637,5-1.182l1.454,5.636c-2.454,0.818-5.454,1.637-8.182,1.637
		c-9.455,0-12.637-6-12.637-14.728V58.897z"/>
</g>
<g>
	<circle cx="83.292" cy="68.863" r="20.309"/>
	<circle fill="#FFFFFF" cx="91.456" cy="60.699" r="10.154"/>
</g>
<path fill="none" stroke="#000000" stroke-width="5" stroke-miterlimit="10" d="M14.683,18.883c23.197,0,24.671,38.23,24.671,78.106
	c0-39.876,18.805-72.201,42.003-72.201s42.003,32.325,42.003,72.201c0-39.876,18.805-72.201,42.003-72.201
	s42.003,32.325,42.003,72.201"/>
<g>
	<circle cx="168.011" cy="68.863" r="20.309"/>
	<circle fill="#FFFFFF" cx="176.174" cy="60.699" r="10.154"/>
</g>
<g>
	<circle cx="83.292" cy="68.863" r="20.309"/>
	<circle fill="#FFFFFF" cx="91.456" cy="60.699" r="10.154"/>
</g>
<path fill="none" stroke="#000000" stroke-width="5" stroke-miterlimit="10" d="M14.683,18.883c23.197,0,24.671,38.23,24.671,78.106
	c0-39.876,18.805-72.201,42.003-72.201s42.003,32.325,42.003,72.201c0-39.876,18.805-72.201,42.003-72.201
	s42.003,32.325,42.003,72.201"/>
<g>
	<circle cx="168.011" cy="68.863" r="20.309"/>
	<circle fill="#FFFFFF" cx="176.174" cy="60.699" r="10.154"/>
</g>
<g>
	<circle cx="83.292" cy="68.863" r="20.309"/>
	<circle fill="#FFFFFF" cx="91.456" cy="60.699" r="10.154"/>
</g>
</svg>
