<?xml version="1.0" encoding="utf-8"?>
<!-- Generator: Adobe Illustrator 21.0.0, SVG Export Plug-In . SVG Version: 6.00 Build 0)  -->
<svg version="1.1" id="Layer_1" xmlns="http://www.w3.org/2000/svg" xmlns:xlink="http://www.w3.org/1999/xlink" x="0px" y="0px"
	 viewBox="0 0 383.516 87.912" enable-background="new 0 0 383.516 87.912" xml:space="preserve">
<g>
	<path fill="none" stroke="#333333" stroke-width="5" stroke-miterlimit="10" d="M15.545,11.525c19.733,0,20.986,32.52,20.986,66.44
		c0-33.92,15.996-61.417,35.729-61.417s35.729,27.497,35.729,61.417c0-33.92,15.996-61.417,35.729-61.417
		s35.729,27.497,35.729,61.417"/>
	<g>
		<circle fill="#333333" cx="145.971" cy="54.04" r="17.275"/>
		<circle fill="#FFFFFF" cx="152.915" cy="47.095" r="8.638"/>
	</g>
	<g>
		<circle fill="#333333" cx="73.906" cy="54.04" r="17.275"/>
		<circle fill="#FFFFFF" cx="80.85" cy="47.095" r="8.638"/>
	</g>
</g>
<g>
	<path fill="#333333" d="M221.435,60.427V39.832h2.292v3.258h0.121c0.214-0.509,0.482-0.985,0.805-1.428
		c0.321-0.442,0.71-0.838,1.166-1.187s0.999-0.624,1.629-0.824c0.63-0.201,1.374-0.302,2.233-0.302c1.474,0,2.775,0.349,3.901,1.046
		s1.944,1.797,2.453,3.298h0.121c0.375-1.207,1.093-2.232,2.152-3.077c1.059-0.845,2.5-1.267,4.324-1.267
		c2.198,0,3.888,0.677,5.068,2.031c1.18,1.354,1.77,3.292,1.77,5.813v13.233h-2.293V47.595c0-4.129-1.729-6.194-5.188-6.194
		c-0.725,0-1.408,0.095-2.052,0.282s-1.214,0.476-1.71,0.864c-0.496,0.39-0.892,0.872-1.187,1.448
		c-0.295,0.577-0.442,1.24-0.442,1.991v14.44h-2.293V47.595c0-4.129-1.716-6.194-5.148-6.194c-0.697,0-1.374,0.095-2.031,0.282
		s-1.24,0.469-1.75,0.845c-0.51,0.375-0.912,0.852-1.206,1.428c-0.296,0.577-0.443,1.24-0.443,1.991v14.48H221.435z"/>
	<path fill="#333333" d="M268.619,39.832h2.333l-9.533,26.387c-0.322,0.858-0.711,1.448-1.167,1.771
		c-0.456,0.321-1.206,0.482-2.252,0.482h-2.333v-1.971h3.459l1.971-5.471l-7.643-21.198h2.414l6.314,18.141h0.161L268.619,39.832z"
		/>
	<path fill="#333333" d="M283.863,60.909c-2.414,0-4.459-0.43-6.135-1.289s-3.117-1.987-4.324-3.385l3.58-3.465
		c0.966,1.117,2.045,1.969,3.238,2.555s2.514,0.878,3.962,0.878c1.636,0,2.869-0.353,3.701-1.058
		c0.831-0.705,1.247-1.656,1.247-2.854c0-0.931-0.269-1.689-0.805-2.274c-0.537-0.586-1.543-1.011-3.017-1.277l-2.655-0.399
		c-5.605-0.886-8.407-3.611-8.407-8.176c0-1.262,0.234-2.402,0.704-3.423c0.469-1.021,1.146-1.893,2.031-2.618
		c0.885-0.725,1.951-1.282,3.198-1.672c1.247-0.389,2.661-0.583,4.243-0.583c2.118,0,3.969,0.349,5.552,1.048
		c1.581,0.699,2.936,1.732,4.063,3.103l-3.62,3.426c-0.698-0.85-1.543-1.541-2.534-2.073c-0.993-0.531-2.239-0.797-3.741-0.797
		c-1.528,0-2.675,0.285-3.439,0.856c-0.764,0.572-1.146,1.376-1.146,2.412c0,1.063,0.309,1.849,0.926,2.354
		c0.616,0.506,1.608,0.878,2.977,1.116l2.614,0.483c2.842,0.511,4.94,1.416,6.295,2.719c1.354,1.302,2.031,3.12,2.031,5.456
		c0,1.342-0.234,2.557-0.703,3.644c-0.47,1.087-1.153,2.027-2.052,2.819c-0.898,0.791-1.998,1.402-3.299,1.832
		C287.046,60.695,285.552,60.909,283.863,60.909z"/>
	<path fill="#333333" d="M301.963,36.373c-1.072,0-1.844-0.242-2.313-0.725c-0.47-0.482-0.704-1.099-0.704-1.85v-0.805
		c0-0.75,0.234-1.368,0.704-1.85c0.469-0.483,1.24-0.724,2.313-0.724c1.046,0,1.811,0.241,2.293,0.724
		c0.482,0.482,0.724,1.1,0.724,1.85v0.805c0,0.751-0.241,1.368-0.724,1.85S303.009,36.373,301.963,36.373z M299.389,39.43h5.148
		v20.997h-5.148V39.43z"/>
	<path fill="#333333" d="M329.435,62.197c0,1.1-0.194,2.072-0.583,2.917s-1.025,1.548-1.91,2.111
		c-0.886,0.563-2.025,0.992-3.42,1.287s-3.097,0.442-5.108,0.442c-1.77,0-3.271-0.114-4.505-0.342
		c-1.233-0.229-2.246-0.55-3.037-0.965c-0.791-0.417-1.361-0.933-1.709-1.549c-0.349-0.617-0.523-1.314-0.523-2.092
		c0-1.181,0.328-2.099,0.985-2.756s1.575-1.079,2.756-1.267v-0.442c-0.858-0.215-1.522-0.638-1.991-1.27
		c-0.47-0.631-0.704-1.375-0.704-2.235c0-0.536,0.107-1.014,0.322-1.43c0.214-0.416,0.503-0.772,0.864-1.067
		c0.362-0.296,0.771-0.544,1.228-0.745c0.455-0.201,0.938-0.355,1.447-0.464V52.17c-1.287-0.59-2.246-1.406-2.876-2.451
		s-0.945-2.265-0.945-3.658c0-2.143,0.737-3.864,2.213-5.164c1.475-1.3,3.633-1.949,6.476-1.949c0.644,0,1.28,0.04,1.911,0.12
		c0.63,0.081,1.213,0.215,1.75,0.402v-0.684c0-2.038,0.991-3.057,2.977-3.057h3.258v3.941h-4.465v0.563
		c1.1,0.617,1.917,1.422,2.454,2.413c0.536,0.992,0.804,2.132,0.804,3.419c0,2.119-0.73,3.821-2.191,5.108
		c-1.462,1.287-3.628,1.931-6.497,1.931c-1.233,0-2.307-0.12-3.218-0.361c-0.402,0.188-0.751,0.436-1.046,0.744
		s-0.442,0.69-0.442,1.146c0,1.046,0.911,1.568,2.735,1.568h5.632c2.574,0,4.444,0.53,5.611,1.589
		C328.852,58.852,329.435,60.321,329.435,62.197z M324.609,62.8c0-0.671-0.269-1.193-0.805-1.568
		c-0.537-0.376-1.462-0.563-2.775-0.563h-7.16c-0.724,0.536-1.086,1.261-1.086,2.172c0,0.805,0.335,1.435,1.006,1.891
		c0.67,0.456,1.81,0.685,3.419,0.685h2.574c1.689,0,2.916-0.216,3.681-0.645C324.226,64.342,324.609,63.685,324.609,62.8z
		 M318.414,49.567c2.521,0,3.781-1.066,3.781-3.2v-0.68c0-2.133-1.261-3.2-3.781-3.2s-3.78,1.067-3.78,3.2v0.68
		C314.633,48.5,315.893,49.567,318.414,49.567z"/>
	<path fill="#333333" d="M332.413,30.661h5.148v12.268h0.201c0.429-1.126,1.106-2.071,2.031-2.835
		c0.926-0.765,2.206-1.146,3.842-1.146c2.172,0,3.834,0.711,4.987,2.132c1.153,1.422,1.73,3.446,1.73,6.073v13.274h-5.149V47.676
		c0-1.502-0.268-2.628-0.804-3.379c-0.537-0.751-1.422-1.126-2.655-1.126c-0.537,0-1.053,0.074-1.549,0.221
		c-0.496,0.147-0.938,0.362-1.327,0.644c-0.389,0.282-0.704,0.631-0.945,1.046c-0.241,0.416-0.362,0.905-0.362,1.469v13.877h-5.148
		V30.661z"/>
	<path fill="#333333" d="M362.621,60.427c-1.77,0-3.117-0.463-4.043-1.388c-0.925-0.925-1.388-2.246-1.388-3.962V43.492h-3.097
		V39.43h1.608c0.777,0,1.308-0.181,1.589-0.543c0.282-0.362,0.423-0.905,0.423-1.629v-3.58h4.626v5.752h4.304v4.063h-4.304v12.791
		h3.981v4.144H362.621z"/>
</g>
</svg>
